<svg width="1920" height="1080" viewBox="0 0 1920 1080" fill="none" xmlns="http://www.w3.org/2000/svg">
<g clip-path="url(#clip0_2234_8802)">
<g opacity="0.2" clip-path="url(#clip1_2234_8802)">
<path d="M120.097 896C41.5443 896 -22 959.544 -22 1038.1C-22 1116.46 41.5443 1180.19 120.097 1180.19C198.456 1180.19 262.195 1116.65 262.195 1038.1C262 959.544 198.456 896 120.097 896ZM120.097 1171.03C46.6122 1171.03 -12.8387 1111.58 -12.8387 1038.1C-12.8387 964.612 46.6122 905.161 120.097 905.161C193.583 905.161 253.034 964.612 253.034 1038.1C253.034 1111.39 193.388 1171.03 120.097 1171.03Z" fill="white"/>
<path d="M120.099 926.603C58.6986 926.603 8.79883 976.502 8.79883 1037.9C8.79883 1099.3 58.6986 1149.2 120.099 1149.2C181.499 1149.2 231.399 1099.5 231.399 1038.1C231.399 976.502 181.499 926.603 120.099 926.603ZM120.099 1132.24C68.0548 1132.24 25.757 1089.95 25.757 1037.9C25.757 985.859 68.0548 943.561 120.099 943.561C172.143 943.561 214.441 985.859 214.441 1037.9C214.441 1089.95 172.143 1132.24 120.099 1132.24Z" fill="white"/>
<path d="M120.098 975.527C85.597 975.527 57.5283 1003.6 57.5283 1038.1C57.5283 1072.6 85.402 1100.67 120.098 1100.67C154.599 1100.67 182.668 1072.6 182.668 1038.1C182.473 1003.6 154.599 975.527 120.098 975.527ZM120.098 1071.62C101.58 1071.62 86.5716 1056.61 86.5716 1038.1C86.5716 1019.58 101.58 1004.57 120.098 1004.57C138.616 1004.57 153.624 1019.58 153.624 1038.1C153.624 1056.61 138.616 1071.62 120.098 1071.62Z" fill="white"/>
</g>
<g opacity="0.8" clip-path="url(#clip2_2234_8802)">
<path d="M1858.34 789.264C1858.34 790.784 1857.19 791.923 1855.67 791.923C1854.14 791.923 1853 790.784 1853 789.264C1853 787.745 1854.14 786.605 1855.67 786.605C1857.19 786.605 1858.34 787.872 1858.34 789.264Z" fill="white"/>
<path d="M1881.08 789.264C1881.08 790.784 1879.93 791.923 1878.41 791.923C1876.88 791.923 1875.74 790.784 1875.74 789.264C1875.74 787.745 1876.88 786.605 1878.41 786.605C1879.8 786.605 1881.08 787.872 1881.08 789.264Z" fill="white"/>
<path d="M1903.69 789.264C1903.69 790.784 1902.54 791.923 1901.02 791.923C1899.5 791.923 1898.35 790.784 1898.35 789.264C1898.35 787.745 1899.5 786.605 1901.02 786.605C1902.54 786.605 1903.69 787.872 1903.69 789.264Z" fill="white"/>
<path d="M1858.34 808.131C1858.34 809.65 1857.19 810.79 1855.67 810.79C1854.14 810.79 1853 809.65 1853 808.131C1853 806.611 1854.14 805.472 1855.67 805.472C1857.19 805.472 1858.34 806.611 1858.34 808.131Z" fill="white"/>
<path d="M1881.08 808.131C1881.08 809.65 1879.93 810.79 1878.41 810.79C1876.88 810.79 1875.74 809.65 1875.74 808.131C1875.74 806.611 1876.88 805.472 1878.41 805.472C1879.8 805.472 1881.08 806.611 1881.08 808.131Z" fill="white"/>
<path d="M1903.69 808.131C1903.69 809.65 1902.54 810.79 1901.02 810.79C1899.5 810.79 1898.35 809.65 1898.35 808.131C1898.35 806.611 1899.5 805.472 1901.02 805.472C1902.54 805.472 1903.69 806.611 1903.69 808.131Z" fill="white"/>
<path d="M1858.34 751.659C1858.34 753.178 1857.19 754.318 1855.67 754.318C1854.14 754.318 1853 753.178 1853 751.659C1853 750.14 1854.14 749 1855.67 749C1857.19 749 1858.34 750.14 1858.34 751.659Z" fill="white"/>
<path d="M1881.08 751.659C1881.08 753.178 1879.93 754.318 1878.41 754.318C1876.88 754.318 1875.74 753.178 1875.74 751.659C1875.74 750.14 1876.88 749 1878.41 749C1879.8 749 1881.08 750.14 1881.08 751.659Z" fill="white"/>
<path d="M1903.69 751.659C1903.69 753.178 1902.54 754.318 1901.02 754.318C1899.5 754.318 1898.35 753.178 1898.35 751.659C1898.35 750.14 1899.62 749 1901.02 749C1902.54 749 1903.69 750.14 1903.69 751.659Z" fill="white"/>
<path d="M1858.34 770.525C1858.34 772.045 1857.19 773.184 1855.67 773.184C1854.14 773.184 1853 771.918 1853 770.525C1853 769.006 1854.14 767.866 1855.67 767.866C1857.19 767.866 1858.34 769.006 1858.34 770.525Z" fill="white"/>
<path d="M1881.08 770.525C1881.08 772.045 1879.93 773.184 1878.41 773.184C1876.88 773.184 1875.74 772.045 1875.74 770.525C1875.74 769.006 1876.88 767.866 1878.41 767.866C1879.8 767.866 1881.08 769.006 1881.08 770.525Z" fill="white"/>
<path d="M1903.69 770.525C1903.69 772.045 1902.54 773.184 1901.02 773.184C1899.5 773.184 1898.35 772.045 1898.35 770.525C1898.35 769.006 1899.5 767.866 1901.02 767.866C1902.54 767.866 1903.69 769.006 1903.69 770.525Z" fill="white"/>
<path d="M1858.34 826.87C1858.34 828.389 1857.19 829.529 1855.67 829.529C1854.14 829.529 1853 828.389 1853 826.87C1853 825.35 1854.14 824.211 1855.67 824.211C1857.19 824.211 1858.34 825.477 1858.34 826.87Z" fill="white"/>
<path d="M1881.08 826.87C1881.08 828.389 1879.93 829.529 1878.41 829.529C1876.88 829.529 1875.74 828.389 1875.74 826.87C1875.74 825.35 1876.88 824.211 1878.41 824.211C1879.8 824.211 1881.08 825.477 1881.08 826.87Z" fill="white"/>
<path d="M1903.69 826.87C1903.69 828.389 1902.54 829.529 1901.02 829.529C1899.5 829.529 1898.35 828.389 1898.35 826.87C1898.35 825.35 1899.5 824.211 1901.02 824.211C1902.54 824.211 1903.69 825.477 1903.69 826.87Z" fill="white"/>
<path d="M1858.34 845.736C1858.34 847.256 1857.19 848.395 1855.67 848.395C1854.14 848.395 1853 847.256 1853 845.736C1853 844.217 1854.14 843.077 1855.67 843.077C1857.19 843.077 1858.34 844.217 1858.34 845.736Z" fill="white"/>
<path d="M1881.08 845.736C1881.08 847.256 1879.93 848.395 1878.41 848.395C1876.88 848.395 1875.74 847.256 1875.74 845.736C1875.74 844.217 1876.88 843.077 1878.41 843.077C1879.8 843.077 1881.08 844.217 1881.08 845.736Z" fill="white"/>
<path d="M1903.69 845.736C1903.69 847.256 1902.54 848.395 1901.02 848.395C1899.5 848.395 1898.35 847.256 1898.35 845.736C1898.35 844.217 1899.5 843.077 1901.02 843.077C1902.54 843.077 1903.69 844.217 1903.69 845.736Z" fill="white"/>
<path d="M1858.34 864.601C1858.34 866.121 1857.19 867.26 1855.67 867.26C1854.14 867.26 1853 866.121 1853 864.601C1853 863.082 1854.14 861.942 1855.67 861.942C1857.19 861.942 1858.34 863.082 1858.34 864.601Z" fill="white"/>
<path d="M1881.08 864.601C1881.08 866.121 1879.93 867.26 1878.41 867.26C1876.88 867.26 1875.74 866.121 1875.74 864.601C1875.74 863.082 1876.88 861.942 1878.41 861.942C1879.8 861.942 1881.08 863.082 1881.08 864.601Z" fill="white"/>
<path d="M1903.69 864.601C1903.69 866.121 1902.54 867.26 1901.02 867.26C1899.5 867.26 1898.35 866.121 1898.35 864.601C1898.35 863.082 1899.5 861.942 1901.02 861.942C1902.54 861.942 1903.69 863.082 1903.69 864.601Z" fill="white"/>
<path d="M1858.34 883.341C1858.34 884.86 1857.19 886 1855.67 886C1854.14 886 1853 884.86 1853 883.341C1853 881.821 1854.14 880.682 1855.67 880.682C1857.19 880.682 1858.34 881.948 1858.34 883.341Z" fill="white"/>
<path d="M1881.08 883.341C1881.08 884.86 1879.93 886 1878.41 886C1876.88 886 1875.74 884.86 1875.74 883.341C1875.74 881.821 1876.88 880.682 1878.41 880.682C1879.8 880.682 1881.08 881.948 1881.08 883.341Z" fill="white"/>
<path d="M1903.69 883.341C1903.69 884.86 1902.54 886 1901.02 886C1899.5 886 1898.35 884.86 1898.35 883.341C1898.35 881.821 1899.5 880.682 1901.02 880.682C1902.54 880.682 1903.69 881.948 1903.69 883.341Z" fill="white"/>
</g>
<g opacity="0.3">
<path d="M1851.81 75.2212L1861.47 84.8799L1835.78 110.563L1810.1 84.8799L1819.68 75.2943L1835.71 91.319L1851.81 75.2212Z" fill="white"/>
<path d="M1851.81 40.5386L1861.39 50.1241L1835.71 75.8075L1810.1 50.1973L1819.76 40.5386L1835.78 56.5632L1851.81 40.5386Z" fill="white"/>
<path d="M1851.73 5.78165L1861.39 15.4404L1835.78 41.0506L1810.1 15.3672L1819.68 5.78165L1835.71 21.8063L1851.73 5.78165Z" fill="white"/>
<path d="M1851.81 -28.9761L1861.46 -19.3174L1835.78 6.36601L1810.1 -19.3174L1819.76 -28.9761L1835.78 -12.9514L1851.81 -28.9761Z" fill="white"/>
</g>
<path opacity="0.3" d="M884 808.553C870.071 822.482 847.377 822.482 833.447 808.553C819.518 794.623 819.518 771.929 833.447 758L884 808.553Z" fill="white"/>
<g opacity="0.3">
<path d="M938.486 529.89C949.205 529.89 957.937 521.165 957.937 510.453C957.937 499.742 949.205 491.017 938.486 491.017L938.486 529.89Z" fill="white"/>
<path d="M908.141 529.89C918.861 529.89 927.592 521.165 927.592 510.453C927.592 499.742 918.861 491.017 908.141 491.017L908.141 529.89Z" fill="white"/>
<path d="M877.796 529.89C888.515 529.89 897.247 521.165 897.247 510.453C897.247 499.742 888.515 491.017 877.796 491.017L877.796 529.89Z" fill="white"/>
</g>
<g opacity="0.3">
<path d="M236.301 144.921L236.301 133L268 133L268 164.699L256.169 164.699L256.169 144.921L236.301 144.921Z" fill="white"/>
<path d="M214.898 166.325L214.898 154.494L246.597 154.494L246.597 186.103L234.676 186.103L234.676 166.325L214.898 166.325Z" fill="white"/>
<path d="M193.495 187.819L193.495 175.898L225.103 175.898L225.103 207.597L213.272 207.597L213.272 187.819L193.495 187.819Z" fill="white"/>
<path d="M172 209.222L172 197.301L203.699 197.301L203.699 229L191.778 229L191.778 209.222L172 209.222Z" fill="white"/>
</g>
</g>
<defs>
<clipPath id="clip0_2234_8802">
<rect width="1920" height="1080" fill="white"/>
</clipPath>
<clipPath id="clip1_2234_8802">
<rect width="284" height="284" fill="white" transform="translate(-22 896)"/>
</clipPath>
<clipPath id="clip2_2234_8802">
<rect width="187" height="137" fill="white" transform="translate(1853 749)"/>
</clipPath>
</defs>
</svg>
